<svg width="471" height="128" viewBox="0 0 471 128" fill="none" xmlns="http://www.w3.org/2000/svg">
<path d="M29.8906 102.406C46.2031 102.406 58.2969 93.4062 58.2969 80.6094V80.5391C58.2969 70.1328 52.9531 64.2969 38.1875 60.7109L26.5859 57.8984C18.5 55.9297 15.1953 52.4844 15.1953 47.4922V47.4219C15.1953 40.9531 20.6797 36.6641 29.5391 36.6641C38.6094 36.6641 44.0234 41.375 45.0078 48.4766L45.0781 48.9688H56.75L56.6797 48.0547C55.7656 35.8203 45.5703 26.4688 29.5391 26.4688C13.7188 26.4688 2.67969 35.3984 2.67969 47.9844V48.0547C2.67969 58.6016 9.35938 65 23.1406 68.3047L34.7422 71.1172C43.0391 73.1562 45.7812 76.1094 45.7812 81.3828V81.4531C45.7812 88.0625 39.875 92.2109 29.9609 92.2109C19.9766 92.2109 14.5625 87.9219 13.0859 80.6094L12.9453 79.9062H0.710938L0.78125 80.5391C2.25781 93.6172 12.6641 102.406 29.8906 102.406ZM101.117 102.406C117.078 102.406 129.031 92.8438 131.422 80.75L131.562 80.0469H119.539L119.328 80.6797C117.219 86.9375 110.68 91.5781 101.398 91.5781C88.3906 91.5781 80.0938 82.7891 79.8125 67.7422H132.477V63.2422C132.477 41.3047 120.312 26.4688 100.344 26.4688C80.375 26.4688 67.4375 42.0078 67.4375 64.6484V64.7188C67.4375 87.7109 80.0938 102.406 101.117 102.406ZM100.273 37.2969C110.961 37.2969 118.836 43.9766 120.031 58.1797H80.0234C81.3594 44.5391 89.6562 37.2969 100.273 37.2969ZM168.617 102.406C171.008 102.406 173.609 102.125 175.156 101.914V92C174.102 92.0703 172.695 92.2812 171.219 92.2812C164.68 92.2812 161.234 90.1016 161.234 82.2969V38H175.156V27.875H161.234V8.11719H148.578V27.875H137.891V38H148.578V82.3672C148.578 96.3594 155.188 102.406 168.617 102.406ZM212.07 102.406C214.461 102.406 217.062 102.125 218.609 101.914V92C217.555 92.0703 216.148 92.2812 214.672 92.2812C208.133 92.2812 204.688 90.1016 204.688 82.2969V38H218.609V27.875H204.688V8.11719H192.031V27.875H181.344V38H192.031V82.3672C192.031 96.3594 198.641 102.406 212.07 102.406ZM238.648 15.5C242.938 15.5 246.312 12.0547 246.312 7.83594C246.312 3.54688 242.938 0.171875 238.648 0.171875C234.43 0.171875 230.984 3.54688 230.984 7.83594C230.984 12.0547 234.43 15.5 238.648 15.5ZM232.531 101H244.766V27.875H232.531V101ZM261.43 101H273.664V57.9688C273.664 45.5234 281.188 37.2969 292.719 37.2969C303.969 37.2969 309.523 43.8359 309.523 55.7188V101H321.758V53.5391C321.758 36.875 312.477 26.4688 296.445 26.4688C285.336 26.4688 277.883 31.4609 273.945 38.2812H273.664V27.875H261.43V101ZM368.305 127.016C388.133 127.016 400.578 115.906 400.578 98.9609V27.875H388.344V40.25H388.062C383.562 32.0938 375.406 26.4688 365.07 26.4688C346.508 26.4688 333.781 41.2344 333.781 63.9453V64.0156C333.781 86.8672 346.367 101.703 364.789 101.703C375.266 101.703 383.703 96.5 388.062 88.4141H388.344V97.7656C388.344 109.086 381.031 116.188 368.164 116.188C358.18 116.188 351.219 112.953 348.898 107.68L348.617 107.047H336.312L336.453 107.68C338.844 118.508 350.234 127.016 368.305 127.016ZM367.461 90.875C354.453 90.875 346.297 80.6094 346.297 64.0156V63.9453C346.297 47.7031 354.453 37.2969 367.461 37.2969C379.836 37.2969 388.344 47.8438 388.344 63.9453V64.0156C388.344 80.2578 379.906 90.875 367.461 90.875ZM442.344 102.406C458.656 102.406 470.75 93.4062 470.75 80.6094V80.5391C470.75 70.1328 465.406 64.2969 450.641 60.7109L439.039 57.8984C430.953 55.9297 427.648 52.4844 427.648 47.4922V47.4219C427.648 40.9531 433.133 36.6641 441.992 36.6641C451.062 36.6641 456.477 41.375 457.461 48.4766L457.531 48.9688H469.203L469.133 48.0547C468.219 35.8203 458.023 26.4688 441.992 26.4688C426.172 26.4688 415.133 35.3984 415.133 47.9844V48.0547C415.133 58.6016 421.812 65 435.594 68.3047L447.195 71.1172C455.492 73.1562 458.234 76.1094 458.234 81.3828V81.4531C458.234 88.0625 452.328 92.2109 442.414 92.2109C432.43 92.2109 427.016 87.9219 425.539 80.6094L425.398 79.9062H413.164L413.234 80.5391C414.711 93.6172 425.117 102.406 442.344 102.406Z" fill="black"/>
</svg>
